<svg class="main-svg" xmlns="http://www.w3.org/2000/svg" xmlns:xlink="http://www.w3.org/1999/xlink" width="1500" height="1500" viewBox="0 0 300 300"><rect x="0" y="0" width="300" height="300" style="fill: rgb(255, 255, 255); fill-opacity: 1;"/><defs id="defs-1da828"><g class="clips"><clipPath id="clip1da828xyplot" class="plotclip"><rect width="71" height="120"/></clipPath><clipPath class="axesclip" id="clip1da828x"><rect x="80" y="0" width="71" height="300"/></clipPath><clipPath class="axesclip" id="clip1da828y"><rect x="0" y="100" width="300" height="120"/></clipPath><clipPath class="axesclip" id="clip1da828xy"><rect x="80" y="100" width="71" height="120"/></clipPath></g><g class="gradients"/></defs><g class="bglayer"/><g class="layer-below"><g class="imagelayer"/><g class="shapelayer"/></g><g class="cartesianlayer"><g class="subplot xy"><g class="layer-subplot"><g class="shapelayer"/><g class="imagelayer"/></g><g class="gridlayer"><g class="x"><path class="xgrid crisp" transform="translate(90.46000000000001,0)" d="M0,100v120" style="stroke: rgb(238, 238, 238); stroke-opacity: 1; stroke-width: 1px;"/><path class="xgrid crisp" transform="translate(111.34,0)" d="M0,100v120" style="stroke: rgb(238, 238, 238); stroke-opacity: 1; stroke-width: 1px;"/><path class="xgrid crisp" transform="translate(132.22,0)" d="M0,100v120" style="stroke: rgb(238, 238, 238); stroke-opacity: 1; stroke-width: 1px;"/></g><g class="y"><path class="ygrid crisp" transform="translate(0,184.38)" d="M80,0h71" style="stroke: rgb(238, 238, 238); stroke-opacity: 1; stroke-width: 1px;"/><path class="ygrid crisp" transform="translate(0,148.75)" d="M80,0h71" style="stroke: rgb(238, 238, 238); stroke-opacity: 1; stroke-width: 1px;"/><path class="ygrid crisp" transform="translate(0,113.13)" d="M80,0h71" style="stroke: rgb(238, 238, 238); stroke-opacity: 1; stroke-width: 1px;"/></g></g><g class="zerolinelayer"><path class="yzl zl crisp" transform="translate(0,220)" d="M80,0h71" style="stroke: rgb(68, 68, 68); stroke-opacity: 1; stroke-width: 1px;"/></g><path class="xlines-below"/><path class="ylines-below"/><g class="overlines-below"/><g class="xaxislayer-below"/><g class="yaxislayer-below"/><g class="overaxes-below"/><g class="plot" transform="translate(80, 100)" clip-path="url('#clip1da828xyplot')"><g class="scatterlayer mlayer"><g class="trace scatter trace2f222250-b449-42c4-ac47-93035a80c30e" style="stroke-miterlimit: 2;"><g class="fills"><g><path class="js-fill" d="M71,120L0,120L0,120L37.94,120L38.3,116.44L39.34,105.04L39.69,104.33L40.38,109.31L40.73,105.04L41.07,102.9L41.43,108.6L41.77,117.15L42.13,110.74L42.48,103.61L42.82,103.61L43.18,102.19L44.23,107.18L44.55,102.9L45.95,110.03L46.3,110.03L46.65,110.03L47,104.33L47.7,106.46L48.05,100.76L49.78,108.6L50.12,106.46L50.47,105.75L50.83,107.89L51.17,101.48L51.53,103.61L51.87,104.33L52.22,107.18L52.58,103.61L53.25,105.75L53.6,104.33L53.95,105.04L54.29,100.76L54.65,110.74L55,106.46L55.35,106.46L55.7,110.74L56.04,104.33L56.75,112.16L57.08,103.61L57.44,109.31L57.78,104.33L58.14,102.9L58.48,110.03L58.83,107.89L59.19,103.61L59.53,104.33L59.89,107.89L60.94,112.88L61.26,105.04L62.31,110.74L62.65,109.31L63.01,109.31L63.36,110.03L63.7,105.75L64.06,106.46L64.4,105.04L64.76,112.16L65.43,110.74L65.79,108.6L67.18,108.6L67.54,110.03L67.88,109.31L68.23,112.16L68.93,112.16L69.28,113.59L69.96,111.45L70.3,112.88L70.66,113.59L71,117.86" style="fill: rgb(31, 119, 180); fill-opacity: 0.5; stroke-width: 0;"/></g><g><path class="js-fill" d="M0,120L31.7,120L32.02,112.16L32.37,102.19L32.72,102.9L33.07,107.89L33.77,105.04L34.12,107.89L34.47,113.59L34.82,105.75L35.16,107.89L35.52,102.9L35.87,103.61L36.19,102.19L36.55,109.31L36.89,105.04L37.24,106.46L38.3,105.04L38.64,97.2L38.99,101.48L39.34,94.35L39.69,92.21L40.05,97.91L41.07,90.79L41.43,92.93L41.77,104.33L42.13,101.48L42.48,88.65L42.82,89.36L43.18,87.94L43.88,94.35L44.23,92.93L44.55,84.38L45.95,96.49L46.3,92.21L46.65,95.06L47,90.08L47.7,92.93L48.05,87.23L48.4,98.63L49.08,96.49L49.42,92.21L50.12,97.91L50.47,92.93L51.53,97.91L51.87,91.5L52.22,99.34L52.58,93.64L52.9,92.93L53.25,90.79L53.6,97.2L53.95,95.78L54.29,89.36L54.65,101.48L55,95.06L55.35,97.91L55.7,101.48L56.04,90.79L56.75,107.18L57.08,97.91L57.44,102.19L57.78,91.5L58.14,91.5L58.48,101.48L58.83,97.91L59.19,100.76L59.53,99.34L60.23,105.04L60.58,100.05L60.94,103.61L61.61,102.9L61.95,103.61L63.01,101.48L63.36,107.18L64.4,96.49L64.76,103.61L65.43,104.33L65.79,97.91L66.83,97.2L67.18,102.19L68.23,97.2L68.58,100.05L68.93,105.04L69.6,104.33L69.96,103.61L71,116.44L71,117.86L70.66,113.59L70.3,112.88L69.96,111.45L69.28,113.59L68.93,112.16L68.23,112.16L67.88,109.31L67.54,110.03L67.18,108.6L65.79,108.6L65.43,110.74L64.76,112.16L64.4,105.04L64.06,106.46L63.7,105.75L63.36,110.03L63.01,109.31L62.65,109.31L62.31,110.74L61.26,105.04L60.94,112.88L59.89,107.89L59.53,104.33L59.19,103.61L58.83,107.89L58.48,110.03L58.14,102.9L57.78,104.33L57.44,109.31L57.08,103.61L56.75,112.16L56.04,104.33L55.7,110.74L55.35,106.46L55,106.46L54.65,110.74L54.29,100.76L53.95,105.04L53.6,104.33L53.25,105.75L52.58,103.61L52.22,107.18L51.87,104.33L51.53,103.61L51.17,101.48L50.83,107.89L50.47,105.75L50.12,106.46L49.78,108.6L48.05,100.76L47.7,106.46L47,104.33L46.65,110.03L46.3,110.03L45.95,110.03L44.55,102.9L44.23,107.18L43.18,102.19L42.82,103.61L42.48,103.61L42.13,110.74L41.77,117.15L41.43,108.6L41.07,102.9L40.73,105.04L40.38,109.31L39.69,104.33L39.34,105.04L38.3,116.44L37.94,120L0,120Z" style="fill: rgb(255, 127, 14); fill-opacity: 0.5; stroke-width: 0;"/></g></g><g class="errorbars"/><g class="lines"><path class="js-line" d="M0,120L37.94,120L38.3,116.44L39.34,105.04L39.69,104.33L40.38,109.31L40.73,105.04L41.07,102.9L41.43,108.6L41.77,117.15L42.13,110.74L42.48,103.61L42.82,103.61L43.18,102.19L44.23,107.18L44.55,102.9L45.95,110.03L46.3,110.03L46.65,110.03L47,104.33L47.7,106.46L48.05,100.76L49.78,108.6L50.12,106.46L50.47,105.75L50.83,107.89L51.17,101.48L51.53,103.61L51.87,104.33L52.22,107.18L52.58,103.61L53.25,105.75L53.6,104.33L53.95,105.04L54.29,100.76L54.65,110.74L55,106.46L55.35,106.46L55.7,110.74L56.04,104.33L56.75,112.16L57.08,103.61L57.44,109.31L57.78,104.33L58.14,102.9L58.48,110.03L58.83,107.89L59.19,103.61L59.53,104.33L59.89,107.89L60.94,112.88L61.26,105.04L62.31,110.74L62.65,109.31L63.01,109.31L63.36,110.03L63.7,105.75L64.06,106.46L64.4,105.04L64.76,112.16L65.43,110.74L65.79,108.6L67.18,108.6L67.54,110.03L67.88,109.31L68.23,112.16L68.93,112.16L69.28,113.59L69.96,111.45L70.3,112.88L70.66,113.59L71,117.86" style="vector-effect: non-scaling-stroke; fill: none; stroke: rgb(31, 119, 180); stroke-opacity: 1; stroke-width: 0.5px; opacity: 1;"/></g><g class="points"/><g class="text"/></g><g class="trace scatter traceff69d734-7f74-4cbf-ba70-b324639c94c8" style="stroke-miterlimit: 2;"><g class="fills"><g><path class="js-fill" d="M0,120L31.7,120L32.02,112.16L32.37,102.19L32.72,102.9L33.07,107.89L33.77,105.04L34.12,107.89L34.47,113.59L34.82,105.75L35.16,107.18L35.52,101.48L35.87,102.9L36.19,100.05L36.55,107.89L36.89,104.33L37.24,102.9L37.59,103.61L37.94,98.63L38.3,101.48L38.64,92.93L38.99,97.91L39.34,88.65L39.69,83.66L40.05,87.23L40.38,86.51L40.73,84.38L41.07,87.94L41.43,90.08L41.77,100.76L42.13,98.63L42.48,85.8L43.18,83.66L43.52,88.65L43.88,90.79L44.23,88.65L44.55,81.53L45.95,93.64L46.3,90.79L46.65,92.21L47,87.94L47.35,90.79L47.7,89.36L48.05,85.09L48.4,95.78L48.72,89.36L49.08,92.93L49.42,87.94L49.78,93.64L50.12,95.06L50.47,85.09L50.83,95.06L51.17,89.36L51.53,94.35L51.87,87.23L52.22,95.06L52.58,90.79L52.9,89.36L53.25,88.65L53.6,95.06L54.29,86.51L54.65,97.91L55,92.21L55.35,94.35L55.7,99.34L56.04,87.23L56.4,100.05L56.75,105.04L57.78,90.08L58.14,89.36L58.48,99.34L58.83,95.78L59.19,96.49L59.53,96.49L59.89,102.19L60.23,102.9L60.58,96.49L60.94,100.76L61.26,97.91L61.61,99.34L61.95,100.76L62.31,99.34L62.65,97.91L63.01,98.63L63.36,103.61L64.4,93.64L64.76,100.76L65.11,101.48L65.43,100.76L65.79,95.06L66.13,95.06L66.48,93.64L66.83,94.35L67.18,99.34L68.58,89.36L68.93,90.79L69.28,91.5L71,115.01L71,116.44L69.96,103.61L69.6,104.33L68.93,105.04L68.58,100.05L68.23,97.2L67.18,102.19L66.83,97.2L65.79,97.91L65.43,104.33L64.76,103.61L64.4,96.49L63.36,107.18L63.01,101.48L61.95,103.61L61.61,102.9L60.94,103.61L60.58,100.05L60.23,105.04L59.53,99.34L59.19,100.76L58.83,97.91L58.48,101.48L58.14,91.5L57.78,91.5L57.44,102.19L57.08,97.91L56.75,107.18L56.04,90.79L55.7,101.48L55.35,97.91L55,95.06L54.65,101.48L54.29,89.36L53.95,95.78L53.6,97.2L53.25,90.79L52.9,92.93L52.58,93.64L52.22,99.34L51.87,91.5L51.53,97.91L50.47,92.93L50.12,97.91L49.42,92.21L49.08,96.49L48.4,98.63L48.05,87.23L47.7,92.93L47,90.08L46.65,95.06L46.3,92.21L45.95,96.49L44.55,84.38L44.23,92.93L43.88,94.35L43.18,87.94L42.82,89.36L42.48,88.65L42.13,101.48L41.77,104.33L41.43,92.93L41.07,90.79L40.05,97.91L39.69,92.21L39.34,94.35L38.99,101.48L38.64,97.2L38.3,105.04L37.24,106.46L36.89,105.04L36.55,109.31L36.19,102.19L35.87,103.61L35.52,102.9L35.16,107.89L34.82,105.75L34.47,113.59L34.12,107.89L33.77,105.04L33.07,107.89L32.72,102.9L32.37,102.19L32.02,112.16L31.7,120L0,120Z" style="fill: rgb(44, 160, 44); fill-opacity: 0.5; stroke-width: 0;"/></g></g><g class="errorbars"/><g class="lines"><path class="js-line" d="M0,120L31.7,120L32.02,112.16L32.37,102.19L32.72,102.9L33.07,107.89L33.77,105.04L34.12,107.89L34.47,113.59L34.82,105.75L35.16,107.89L35.52,102.9L35.87,103.61L36.19,102.19L36.55,109.31L36.89,105.04L37.24,106.46L38.3,105.04L38.64,97.2L38.99,101.48L39.34,94.35L39.69,92.21L40.05,97.91L41.07,90.79L41.43,92.93L41.77,104.33L42.13,101.48L42.48,88.65L42.82,89.36L43.18,87.94L43.88,94.35L44.23,92.93L44.55,84.38L45.95,96.49L46.3,92.21L46.65,95.06L47,90.08L47.7,92.93L48.05,87.23L48.4,98.63L49.08,96.49L49.42,92.21L50.12,97.91L50.47,92.93L51.53,97.91L51.87,91.5L52.22,99.34L52.58,93.64L52.9,92.93L53.25,90.79L53.6,97.2L53.95,95.78L54.29,89.36L54.65,101.48L55,95.06L55.35,97.91L55.7,101.48L56.04,90.79L56.75,107.18L57.08,97.91L57.44,102.19L57.78,91.5L58.14,91.5L58.48,101.48L58.83,97.91L59.19,100.76L59.53,99.34L60.23,105.04L60.58,100.05L60.94,103.61L61.61,102.9L61.95,103.61L63.01,101.48L63.36,107.18L64.4,96.49L64.76,103.61L65.43,104.33L65.79,97.91L66.83,97.2L67.18,102.19L68.23,97.2L68.58,100.05L68.93,105.04L69.6,104.33L69.96,103.61L71,116.44" style="vector-effect: non-scaling-stroke; fill: none; stroke: rgb(255, 127, 14); stroke-opacity: 1; stroke-width: 0.5px; opacity: 1;"/></g><g class="points"/><g class="text"/></g><g class="trace scatter trace1b34e1a2-0b7c-4ccd-b584-fcddfbd1572d" style="stroke-miterlimit: 2;"><g class="fills"><g><path class="js-fill" d="M0,120L8.02,120L8.36,113.59L8.71,111.45L9.07,115.01L9.41,116.44L9.77,113.59L11.14,115.01L11.49,110.74L11.84,113.59L12.19,112.16L12.53,112.16L13.58,109.31L13.94,110.74L14.64,106.46L14.99,108.6L15.67,110.74L16.01,109.31L16.36,111.45L16.71,110.03L17.06,105.75L18.46,108.6L18.81,110.74L19.17,107.18L19.49,107.89L19.84,111.45L21.23,105.04L21.59,107.18L21.93,105.75L22.29,110.03L23.34,105.04L23.67,107.18L24.02,108.6L24.37,107.18L24.72,107.89L25.42,106.46L25.77,112.16L26.12,106.46L26.47,107.18L26.82,107.89L27.17,106.46L27.52,110.03L28.54,106.46L28.9,108.6L29.24,108.6L29.59,110.03L29.95,108.6L30.29,110.03L30.65,110.03L31.34,109.31L31.7,113.59L32.37,87.94L32.72,90.79L33.07,94.35L33.41,92.93L33.77,94.35L34.12,100.76L34.47,102.9L34.82,95.06L35.16,95.06L35.52,89.36L36.55,95.78L36.89,96.49L37.94,88.65L38.3,92.21L39.69,72.26L40.05,77.25L40.73,72.26L41.07,78.68L41.43,77.96L41.77,91.5L43.18,72.26L43.52,78.68L43.88,84.38L44.23,76.54L44.55,71.55L44.91,78.68L45.25,72.26L45.6,77.96L45.95,82.95L47,77.25L47.35,80.1L48.05,75.11L48.4,85.09L49.42,75.11L49.78,82.95L50.12,82.24L50.47,70.84L50.83,83.66L51.53,82.24L51.87,79.39L52.58,82.24L52.9,76.54L53.25,75.83L53.6,82.95L53.95,80.81L54.29,70.84L54.65,85.8L55,81.53L55.35,80.81L55.7,87.23L56.04,77.96L56.75,92.93L57.08,87.23L57.44,89.36L57.78,80.81L58.14,78.68L58.48,87.94L58.83,84.38L59.19,90.08L59.53,85.8L59.89,91.5L60.58,87.23L60.94,90.79L61.26,86.51L61.61,90.08L61.95,89.36L62.65,87.23L63.01,94.35L63.36,99.34L63.7,86.51L64.06,87.23L64.4,84.38L65.43,94.35L65.79,88.65L66.13,90.79L66.48,84.38L67.54,93.64L67.88,84.38L68.23,87.23L68.58,82.24L68.93,82.24L69.28,87.23L70.66,97.91L71,115.01L71,115.01L69.28,91.5L68.93,90.79L68.58,89.36L67.18,99.34L66.83,94.35L66.48,93.64L66.13,95.06L65.79,95.06L65.43,100.76L65.11,101.48L64.76,100.76L64.4,93.64L63.36,103.61L63.01,98.63L62.65,97.91L62.31,99.34L61.95,100.76L61.61,99.34L61.26,97.91L60.94,100.76L60.58,96.49L60.23,102.9L59.89,102.19L59.53,96.49L59.19,96.49L58.83,95.78L58.48,99.34L58.14,89.36L57.78,90.08L56.75,105.04L56.4,100.05L56.04,87.23L55.7,99.34L55.35,94.35L55,92.21L54.65,97.91L54.29,86.51L53.6,95.06L53.25,88.65L52.9,89.36L52.58,90.79L52.22,95.06L51.87,87.23L51.53,94.35L51.17,89.36L50.83,95.06L50.47,85.09L50.12,95.06L49.78,93.64L49.42,87.94L49.08,92.93L48.72,89.36L48.4,95.78L48.05,85.09L47.7,89.36L47.35,90.79L47,87.94L46.65,92.21L46.3,90.79L45.95,93.64L44.55,81.53L44.23,88.65L43.88,90.79L43.52,88.65L43.18,83.66L42.48,85.8L42.13,98.63L41.77,100.76L41.43,90.08L41.07,87.94L40.73,84.38L40.38,86.51L40.05,87.23L39.69,83.66L39.34,88.65L38.99,97.91L38.64,92.93L38.3,101.48L37.94,98.63L37.59,103.61L37.24,102.9L36.89,104.33L36.55,107.89L36.19,100.05L35.87,102.9L35.52,101.48L35.16,107.18L34.82,105.75L34.47,113.59L34.12,107.89L33.77,105.04L33.07,107.89L32.72,102.9L32.37,102.19L32.02,112.16L31.7,120L0,120Z" style="fill: rgb(214, 39, 40); fill-opacity: 0.5; stroke-width: 0;"/></g></g><g class="errorbars"/><g class="lines"><path class="js-line" d="M0,120L31.7,120L32.02,112.16L32.37,102.19L32.72,102.9L33.07,107.89L33.77,105.04L34.12,107.89L34.47,113.59L34.82,105.75L35.16,107.18L35.52,101.48L35.87,102.9L36.19,100.05L36.55,107.89L36.89,104.33L37.24,102.9L37.59,103.61L37.94,98.63L38.3,101.48L38.64,92.93L38.99,97.91L39.34,88.65L39.69,83.66L40.05,87.23L40.38,86.51L40.73,84.38L41.07,87.94L41.43,90.08L41.77,100.76L42.13,98.63L42.48,85.8L43.18,83.66L43.52,88.65L43.88,90.79L44.23,88.65L44.55,81.53L45.95,93.64L46.3,90.79L46.65,92.21L47,87.94L47.35,90.79L47.7,89.36L48.05,85.09L48.4,95.78L48.72,89.36L49.08,92.93L49.42,87.94L49.78,93.64L50.12,95.06L50.47,85.09L50.83,95.06L51.17,89.36L51.53,94.35L51.87,87.23L52.22,95.06L52.58,90.79L52.9,89.36L53.25,88.65L53.6,95.06L54.29,86.51L54.65,97.91L55,92.21L55.35,94.35L55.7,99.34L56.04,87.23L56.4,100.05L56.75,105.04L57.78,90.08L58.14,89.36L58.48,99.34L58.83,95.78L59.19,96.49L59.53,96.49L59.89,102.19L60.23,102.9L60.58,96.49L60.94,100.76L61.26,97.91L61.61,99.34L61.95,100.76L62.31,99.34L62.65,97.91L63.01,98.63L63.36,103.61L64.4,93.64L64.76,100.76L65.11,101.48L65.43,100.76L65.79,95.06L66.13,95.06L66.48,93.64L66.83,94.35L67.18,99.34L68.58,89.36L68.93,90.79L69.28,91.5L71,115.01" style="vector-effect: non-scaling-stroke; fill: none; stroke: rgb(44, 160, 44); stroke-opacity: 1; stroke-width: 0.5px; opacity: 1;"/></g><g class="points"/><g class="text"/></g><g class="trace scatter trace1d4ffc70-f3c4-455a-804e-cd22156dcab7" style="stroke-miterlimit: 2;"><g class="fills"><g><path class="js-fill" d="M0,120L8.02,120L8.36,113.59L8.71,111.45L9.07,115.01L9.41,116.44L9.77,113.59L11.14,115.01L11.49,110.74L11.84,112.88L12.19,97.91L12.89,91.5L13.24,97.91L14.28,104.33L14.64,97.2L15.31,93.64L15.67,102.19L17.06,97.2L17.42,99.34L17.76,92.93L18.11,98.63L18.46,105.04L19.17,100.05L19.49,102.19L19.84,105.75L20.88,97.2L21.23,97.91L21.59,97.91L21.93,93.64L22.29,103.61L22.63,104.33L22.98,101.48L23.34,99.34L23.67,101.48L24.02,104.33L25.07,98.63L25.42,100.76L25.77,107.89L26.12,100.76L26.47,101.48L26.82,102.9L27.17,98.63L27.52,106.46L27.84,98.63L28.2,100.76L28.54,95.78L28.9,97.91L29.24,100.05L29.59,100.05L29.95,102.19L30.65,103.61L30.99,102.19L31.34,100.05L31.7,102.19L32.02,91.5L32.37,79.39L32.72,81.53L33.07,81.53L34.47,95.06L34.82,84.38L35.16,87.94L35.52,82.95L36.55,89.36L36.89,90.79L37.94,81.53L38.3,84.38L39.69,66.56L40.05,67.99L40.38,63.71L40.73,65.14L41.07,65.85L41.43,67.99L41.77,79.39L42.13,77.25L42.48,67.28L42.82,65.14L43.18,65.85L43.52,67.28L43.88,73.69L44.23,64.43L44.55,60.15L44.91,67.99L45.25,60.15L45.6,67.99L45.95,70.13L47.35,63L47.7,64.43L48.05,63.71L48.4,73.69L49.42,62.29L49.78,72.26L50.12,71.55L50.47,56.59L50.83,72.98L51.17,65.85L51.53,69.41L52.58,74.4L52.9,65.14L53.6,73.69L53.95,71.55L54.29,60.86L54.65,77.25L55,71.55L55.35,70.13L55.7,77.25L56.04,67.99L56.75,82.24L57.08,75.83L57.44,80.81L57.78,65.85L58.14,65.85L58.48,74.4L58.83,72.26L59.19,80.1L59.53,78.68L59.89,82.95L60.58,75.83L60.94,77.96L61.26,71.55L61.61,80.1L62.31,79.39L62.65,76.54L63.36,94.35L63.7,79.39L64.06,80.1L64.4,75.11L64.76,85.8L65.43,84.38L65.79,83.66L66.13,86.51L66.48,78.68L67.54,85.8L67.88,80.1L68.23,83.66L68.58,79.39L68.93,75.11L69.28,80.81L71,115.01L71,115.01L70.66,97.91L69.28,87.23L68.93,82.24L68.58,82.24L68.23,87.23L67.88,84.38L67.54,93.64L66.48,84.38L66.13,90.79L65.79,88.65L65.43,94.35L64.4,84.38L64.06,87.23L63.7,86.51L63.36,99.34L63.01,94.35L62.65,87.23L61.95,89.36L61.61,90.08L61.26,86.51L60.94,90.79L60.58,87.23L59.89,91.5L59.53,85.8L59.19,90.08L58.83,84.38L58.48,87.94L58.14,78.68L57.78,80.81L57.44,89.36L57.08,87.23L56.75,92.93L56.04,77.96L55.7,87.23L55.35,80.81L55,81.53L54.65,85.8L54.29,70.84L53.95,80.81L53.6,82.95L53.25,75.83L52.9,76.54L52.58,82.24L51.87,79.39L51.53,82.24L50.83,83.66L50.47,70.84L50.12,82.24L49.78,82.95L49.42,75.11L48.4,85.09L48.05,75.11L47.35,80.1L47,77.25L45.95,82.95L45.6,77.96L45.25,72.26L44.91,78.68L44.55,71.55L44.23,76.54L43.88,84.38L43.52,78.68L43.18,72.26L41.77,91.5L41.43,77.96L41.07,78.68L40.73,72.26L40.05,77.25L39.69,72.26L38.3,92.21L37.94,88.65L36.89,96.49L36.55,95.78L35.52,89.36L35.16,95.06L34.82,95.06L34.47,102.9L34.12,100.76L33.77,94.35L33.41,92.93L33.07,94.35L32.72,90.79L32.37,87.94L31.7,113.59L31.34,109.31L30.65,110.03L30.29,110.03L29.95,108.6L29.59,110.03L29.24,108.6L28.9,108.6L28.54,106.46L27.52,110.03L27.17,106.46L26.82,107.89L26.47,107.18L26.12,106.46L25.77,112.16L25.42,106.46L24.72,107.89L24.37,107.18L24.02,108.6L23.67,107.18L23.34,105.04L22.29,110.03L21.93,105.75L21.59,107.18L21.23,105.04L19.84,111.45L19.49,107.89L19.17,107.18L18.81,110.74L18.46,108.6L17.06,105.75L16.71,110.03L16.36,111.45L16.01,109.31L15.67,110.74L14.99,108.6L14.64,106.46L13.94,110.74L13.58,109.31L12.53,112.16L12.19,112.16L11.84,113.59L11.49,110.74L11.14,115.01L9.77,113.59L9.41,116.44L9.07,115.01L8.71,111.45L8.36,113.59L8.02,120L0,120Z" style="fill: rgb(148, 103, 189); fill-opacity: 0.5; stroke-width: 0;"/></g></g><g class="errorbars"/><g class="lines"><path class="js-line" d="M0,120L8.02,120L8.36,113.59L8.71,111.45L9.07,115.01L9.41,116.44L9.77,113.59L11.14,115.01L11.49,110.74L11.84,113.59L12.19,112.16L12.53,112.16L13.58,109.31L13.94,110.74L14.64,106.46L14.99,108.6L15.67,110.74L16.01,109.31L16.36,111.45L16.71,110.03L17.06,105.75L18.46,108.6L18.81,110.74L19.17,107.18L19.49,107.89L19.84,111.45L21.23,105.04L21.59,107.18L21.93,105.75L22.29,110.03L23.34,105.04L23.67,107.18L24.02,108.6L24.37,107.18L24.72,107.89L25.42,106.46L25.77,112.16L26.12,106.46L26.47,107.18L26.82,107.89L27.17,106.46L27.52,110.03L28.54,106.46L28.9,108.6L29.24,108.6L29.59,110.03L29.95,108.6L30.29,110.03L30.65,110.03L31.34,109.31L31.7,113.59L32.37,87.94L32.72,90.79L33.07,94.35L33.41,92.93L33.77,94.35L34.12,100.76L34.47,102.9L34.82,95.06L35.16,95.06L35.52,89.36L36.55,95.78L36.89,96.49L37.94,88.65L38.3,92.21L39.69,72.26L40.05,77.25L40.73,72.26L41.07,78.68L41.43,77.96L41.77,91.5L43.18,72.26L43.52,78.68L43.88,84.38L44.23,76.54L44.55,71.55L44.91,78.68L45.25,72.26L45.6,77.96L45.95,82.95L47,77.25L47.35,80.1L48.05,75.11L48.4,85.09L49.42,75.11L49.78,82.95L50.12,82.24L50.47,70.84L50.83,83.66L51.53,82.24L51.87,79.39L52.58,82.24L52.9,76.54L53.25,75.83L53.6,82.95L53.95,80.81L54.29,70.84L54.65,85.8L55,81.53L55.35,80.81L55.7,87.23L56.04,77.96L56.75,92.93L57.08,87.23L57.44,89.36L57.78,80.81L58.14,78.68L58.48,87.94L58.83,84.38L59.19,90.08L59.53,85.8L59.89,91.5L60.58,87.23L60.94,90.79L61.26,86.51L61.61,90.08L61.95,89.36L62.65,87.23L63.01,94.35L63.36,99.34L63.7,86.51L64.06,87.23L64.4,84.38L65.43,94.35L65.79,88.65L66.13,90.79L66.48,84.38L67.54,93.64L67.88,84.38L68.23,87.23L68.58,82.24L68.93,82.24L69.28,87.23L70.66,97.91L71,115.01" style="vector-effect: non-scaling-stroke; fill: none; stroke: rgb(214, 39, 40); stroke-opacity: 1; stroke-width: 0.5px; opacity: 1;"/></g><g class="points"/><g class="text"/></g><g class="trace scatter trace3a7034a3-d7d3-4a89-ab16-23b8ad004f0f" style="stroke-miterlimit: 2;"><g class="fills"><g><path class="js-fill" d="M0,120L8.02,120L8.36,113.59L8.71,111.45L9.07,115.01L9.41,116.44L9.77,113.59L11.14,115.01L11.49,110.74L11.84,112.88L12.19,97.91L12.89,91.5L13.24,97.91L14.28,104.33L14.64,97.2L15.31,93.64L15.67,102.19L17.06,97.2L17.42,99.34L17.76,92.93L18.11,98.63L18.46,105.04L19.17,100.05L19.49,102.19L19.84,105.75L20.88,97.2L21.23,97.91L21.59,97.91L21.93,93.64L22.29,103.61L22.63,104.33L22.98,101.48L23.34,99.34L23.67,101.48L24.02,104.33L25.07,98.63L25.42,100.76L25.77,107.89L26.12,100.76L26.47,101.48L26.82,102.9L27.17,98.63L27.52,106.46L27.84,98.63L28.2,100.76L28.54,95.78L28.9,97.91L29.24,100.05L29.59,100.05L29.95,102.19L30.65,103.61L30.99,102.19L31.34,100.05L31.7,102.19L32.02,86.51L32.37,65.85L32.72,72.98L33.07,80.1L34.47,95.06L34.82,84.38L35.16,87.94L35.52,82.95L35.87,84.38L36.19,71.55L36.55,77.96L36.89,72.98L37.24,74.4L37.59,73.69L37.94,63.71L38.3,65.14L38.64,62.29L38.99,71.55L39.34,58.73L40.38,45.9L40.73,50.18L41.43,54.45L41.77,62.29L42.13,63.71L42.48,53.74L43.18,48.75L43.52,55.88L43.88,60.86L44.23,53.74L45.25,47.33L45.6,55.88L46.3,58.01L46.65,53.74L47,55.88L47.35,53.74L47.7,53.03L48.05,52.31L48.4,62.29L49.42,50.18L49.78,65.14L50.12,60.86L50.47,44.48L50.83,56.59L51.53,55.88L51.87,60.15L52.22,60.86L52.58,65.14L52.9,54.45L53.25,56.59L53.6,63L54.29,47.33L54.65,63.71L55,60.15L55.35,60.86L55.7,66.56L56.04,59.44L56.4,74.4L56.75,72.98L57.08,65.85L57.44,69.41L57.78,58.01L59.19,80.1L59.53,78.68L59.89,82.95L60.23,77.25L60.58,75.83L60.94,77.96L61.26,71.55L61.61,80.1L62.31,79.39L62.65,76.54L63.36,94.35L63.7,79.39L64.06,80.1L64.4,75.11L64.76,85.8L65.43,84.38L65.79,83.66L66.13,86.51L66.48,78.68L67.54,85.8L67.88,80.1L68.23,83.66L68.58,79.39L68.93,75.11L69.28,80.81L71,115.01L71,115.01L69.28,80.81L68.93,75.11L68.58,79.39L68.23,83.66L67.88,80.1L67.54,85.8L66.48,78.68L66.13,86.51L65.79,83.66L65.43,84.38L64.76,85.8L64.4,75.11L64.06,80.1L63.7,79.39L63.36,94.35L62.65,76.54L62.31,79.39L61.61,80.1L61.26,71.55L60.94,77.96L60.58,75.83L59.89,82.95L59.53,78.68L59.19,80.1L58.83,72.26L58.48,74.4L58.14,65.85L57.78,65.85L57.44,80.81L57.08,75.83L56.75,82.24L56.04,67.99L55.7,77.25L55.35,70.13L55,71.55L54.65,77.25L54.29,60.86L53.95,71.55L53.6,73.69L52.9,65.14L52.58,74.4L51.53,69.41L51.17,65.85L50.83,72.98L50.47,56.59L50.12,71.55L49.78,72.26L49.42,62.29L48.4,73.69L48.05,63.71L47.7,64.43L47.35,63L45.95,70.13L45.6,67.99L45.25,60.15L44.91,67.99L44.55,60.15L44.23,64.43L43.88,73.69L43.52,67.28L43.18,65.85L42.82,65.14L42.48,67.28L42.13,77.25L41.77,79.39L41.43,67.99L41.07,65.85L40.73,65.14L40.38,63.71L40.05,67.99L39.69,66.56L38.3,84.38L37.94,81.53L36.89,90.79L36.55,89.36L35.52,82.95L35.16,87.94L34.82,84.38L34.47,95.06L33.07,81.53L32.72,81.53L32.37,79.39L32.02,91.5L31.7,102.19L31.34,100.05L30.99,102.19L30.65,103.61L29.95,102.19L29.59,100.05L29.24,100.05L28.9,97.91L28.54,95.78L28.2,100.76L27.84,98.63L27.52,106.46L27.17,98.63L26.82,102.9L26.47,101.48L26.12,100.76L25.77,107.89L25.42,100.76L25.07,98.63L24.02,104.33L23.67,101.48L23.34,99.34L22.98,101.48L22.63,104.33L22.29,103.61L21.93,93.64L21.59,97.91L21.23,97.91L20.88,97.2L19.84,105.75L19.49,102.19L19.17,100.05L18.46,105.04L18.11,98.63L17.76,92.93L17.42,99.34L17.06,97.2L15.67,102.19L15.31,93.64L14.64,97.2L14.28,104.33L13.24,97.91L12.89,91.5L12.19,97.91L11.84,112.88L11.49,110.74L11.14,115.01L9.77,113.59L9.41,116.44L9.07,115.01L8.71,111.45L8.36,113.59L8.02,120L0,120Z" style="fill: rgb(140, 86, 75); fill-opacity: 0.5; stroke-width: 0;"/></g></g><g class="errorbars"/><g class="lines"><path class="js-line" d="M0,120L8.02,120L8.36,113.59L8.71,111.45L9.07,115.01L9.41,116.44L9.77,113.59L11.14,115.01L11.49,110.74L11.84,112.88L12.19,97.91L12.89,91.5L13.24,97.91L14.28,104.33L14.64,97.2L15.31,93.64L15.67,102.19L17.06,97.2L17.42,99.34L17.76,92.93L18.11,98.63L18.46,105.04L19.17,100.05L19.49,102.19L19.84,105.75L20.88,97.2L21.23,97.91L21.59,97.91L21.93,93.64L22.29,103.61L22.63,104.33L22.98,101.48L23.34,99.34L23.67,101.48L24.02,104.33L25.07,98.63L25.42,100.76L25.77,107.89L26.12,100.76L26.47,101.48L26.82,102.9L27.17,98.63L27.52,106.46L27.84,98.63L28.2,100.76L28.54,95.78L28.9,97.91L29.24,100.05L29.59,100.05L29.95,102.19L30.65,103.61L30.99,102.19L31.34,100.05L31.7,102.19L32.02,91.5L32.37,79.39L32.72,81.53L33.07,81.53L34.47,95.06L34.82,84.38L35.16,87.94L35.52,82.95L36.55,89.36L36.89,90.79L37.94,81.53L38.3,84.38L39.69,66.56L40.05,67.99L40.38,63.71L40.73,65.14L41.07,65.85L41.43,67.99L41.77,79.39L42.13,77.25L42.48,67.28L42.82,65.14L43.18,65.85L43.52,67.28L43.88,73.69L44.23,64.43L44.55,60.15L44.91,67.99L45.25,60.15L45.6,67.99L45.95,70.13L47.35,63L47.7,64.43L48.05,63.71L48.4,73.69L49.42,62.29L49.78,72.26L50.12,71.55L50.47,56.59L50.83,72.98L51.17,65.85L51.53,69.41L52.58,74.4L52.9,65.14L53.6,73.69L53.95,71.55L54.29,60.86L54.65,77.25L55,71.55L55.35,70.13L55.7,77.25L56.04,67.99L56.75,82.24L57.08,75.83L57.44,80.81L57.78,65.85L58.14,65.85L58.48,74.4L58.83,72.26L59.19,80.1L59.53,78.68L59.89,82.95L60.58,75.83L60.94,77.96L61.26,71.55L61.61,80.1L62.31,79.39L62.65,76.54L63.36,94.35L63.7,79.39L64.06,80.1L64.4,75.11L64.76,85.8L65.43,84.38L65.79,83.66L66.13,86.51L66.48,78.68L67.54,85.8L67.88,80.1L68.23,83.66L68.58,79.39L68.93,75.11L69.28,80.81L71,115.01" style="vector-effect: non-scaling-stroke; fill: none; stroke: rgb(148, 103, 189); stroke-opacity: 1; stroke-width: 0.5px; opacity: 1;"/></g><g class="points"/><g class="text"/></g><g class="trace scatter trace6a1df2a2-78a0-4c36-abb7-b9ca3283c613" style="stroke-miterlimit: 2;"><g class="fills"><g><path class="js-fill" d="M0,120L8.02,120L8.36,113.59L8.71,111.45L9.07,115.01L9.41,116.44L9.77,113.59L11.14,115.01L11.49,110.74L11.84,112.88L12.19,97.91L12.89,91.5L13.24,97.91L14.28,104.33L14.64,97.2L14.99,92.21L15.31,92.93L15.67,95.06L16.01,95.78L16.36,93.64L16.71,85.8L17.06,90.08L17.42,96.49L17.76,84.38L18.11,92.93L18.46,98.63L19.49,92.21L19.84,96.49L20.88,82.95L21.23,85.09L21.59,90.08L21.93,87.94L22.29,97.91L23.34,91.5L23.67,88.65L24.02,95.78L24.37,88.65L24.72,91.5L25.07,83.66L25.42,88.65L25.77,95.78L26.47,84.38L26.82,90.79L27.17,79.39L27.52,95.06L28.9,83.66L29.24,82.24L29.95,92.21L30.29,91.5L30.65,95.78L31.34,84.38L31.7,97.91L32.37,58.73L32.72,60.15L33.07,69.41L33.41,69.41L33.77,72.26L34.47,85.09L34.82,75.11L35.16,77.96L35.52,68.7L35.87,74.4L36.19,58.01L36.55,70.13L37.24,68.7L37.59,61.58L38.64,51.6L38.99,60.15L40.38,33.79L40.73,40.2L42.13,54.45L42.48,43.05L42.82,43.76L43.18,42.34L43.88,50.89L44.23,45.9L44.91,46.61L45.25,42.34L45.6,49.46L45.95,48.75L46.3,54.45L46.65,45.19L47,49.46L47.35,50.89L48.05,45.19L48.4,59.44L49.42,43.76L49.78,58.01L50.12,53.74L50.47,37.35L50.83,50.18L51.53,49.46L51.87,52.31L52.22,50.18L52.58,60.15L52.9,46.61L53.25,48.04L53.6,56.59L54.29,35.21L54.65,57.3L55,51.6L55.35,52.31L55.7,57.3L56.04,54.45L56.4,65.85L56.75,65.85L57.08,58.73L57.44,61.58L57.78,49.46L59.19,72.98L59.53,71.55L59.89,75.11L60.23,69.41L60.58,68.7L60.94,71.55L61.26,60.15L61.61,67.99L61.95,70.13L62.31,70.84L62.65,63.71L63.36,85.8L63.7,75.11L64.06,74.4L64.4,71.55L64.76,74.4L65.11,77.96L65.79,75.11L66.13,82.95L66.48,72.98L66.83,73.69L67.18,80.1L67.54,80.1L67.88,75.83L68.23,76.54L68.58,69.41L68.93,65.14L69.28,73.69L71,114.3L71,115.01L69.28,80.81L68.93,75.11L68.58,79.39L68.23,83.66L67.88,80.1L67.54,85.8L66.48,78.68L66.13,86.51L65.79,83.66L65.43,84.38L64.76,85.8L64.4,75.11L64.06,80.1L63.7,79.39L63.36,94.35L62.65,76.54L62.31,79.39L61.61,80.1L61.26,71.55L60.94,77.96L60.58,75.83L60.23,77.25L59.89,82.95L59.53,78.68L59.19,80.1L57.78,58.01L57.44,69.41L57.08,65.85L56.75,72.98L56.4,74.4L56.04,59.44L55.7,66.56L55.35,60.86L55,60.15L54.65,63.71L54.29,47.33L53.6,63L53.25,56.59L52.9,54.45L52.58,65.14L52.22,60.86L51.87,60.15L51.53,55.88L50.83,56.59L50.47,44.48L50.12,60.86L49.78,65.14L49.42,50.18L48.4,62.29L48.05,52.31L47.7,53.03L47.35,53.74L47,55.88L46.65,53.74L46.3,58.01L45.6,55.88L45.25,47.33L44.23,53.74L43.88,60.86L43.52,55.88L43.18,48.75L42.48,53.74L42.13,63.71L41.77,62.29L41.43,54.45L40.73,50.18L40.38,45.9L39.34,58.73L38.99,71.55L38.64,62.29L38.3,65.14L37.94,63.71L37.59,73.69L37.24,74.4L36.89,72.98L36.55,77.96L36.19,71.55L35.87,84.38L35.52,82.95L35.16,87.94L34.82,84.38L34.47,95.06L33.07,80.1L32.72,72.98L32.37,65.85L32.02,86.51L31.7,102.19L31.34,100.05L30.99,102.19L30.65,103.61L29.95,102.19L29.59,100.05L29.24,100.05L28.9,97.91L28.54,95.78L28.2,100.76L27.84,98.63L27.52,106.46L27.17,98.63L26.82,102.9L26.47,101.48L26.12,100.76L25.77,107.89L25.42,100.76L25.07,98.63L24.02,104.33L23.67,101.48L23.34,99.34L22.98,101.48L22.63,104.33L22.29,103.61L21.93,93.64L21.59,97.91L21.23,97.91L20.88,97.2L19.84,105.75L19.49,102.19L19.17,100.05L18.46,105.04L18.11,98.63L17.76,92.93L17.42,99.34L17.06,97.2L15.67,102.19L15.31,93.64L14.64,97.2L14.28,104.33L13.24,97.91L12.89,91.5L12.19,97.91L11.84,112.88L11.49,110.74L11.14,115.01L9.77,113.59L9.41,116.44L9.07,115.01L8.71,111.45L8.36,113.59L8.02,120L0,120Z" style="fill: rgb(227, 119, 194); fill-opacity: 0.5; stroke-width: 0;"/></g></g><g class="errorbars"/><g class="lines"><path class="js-line" d="M0,120L8.02,120L8.36,113.59L8.71,111.45L9.07,115.01L9.41,116.44L9.77,113.59L11.14,115.01L11.49,110.74L11.84,112.88L12.19,97.91L12.89,91.5L13.24,97.91L14.28,104.33L14.64,97.2L15.31,93.64L15.67,102.19L17.06,97.2L17.42,99.34L17.76,92.93L18.11,98.63L18.46,105.04L19.17,100.05L19.49,102.19L19.84,105.75L20.88,97.2L21.23,97.91L21.59,97.91L21.93,93.64L22.29,103.61L22.63,104.33L22.98,101.48L23.34,99.34L23.67,101.48L24.02,104.33L25.07,98.63L25.42,100.76L25.77,107.89L26.12,100.76L26.47,101.48L26.82,102.9L27.17,98.63L27.52,106.46L27.84,98.63L28.2,100.76L28.54,95.78L28.9,97.91L29.24,100.05L29.59,100.05L29.95,102.19L30.65,103.61L30.99,102.19L31.34,100.05L31.7,102.19L32.02,86.51L32.37,65.85L32.72,72.98L33.07,80.1L34.47,95.06L34.82,84.38L35.16,87.94L35.52,82.95L35.87,84.38L36.19,71.55L36.55,77.96L36.89,72.98L37.24,74.4L37.59,73.69L37.94,63.71L38.3,65.14L38.64,62.29L38.99,71.55L39.34,58.73L40.38,45.9L40.73,50.18L41.43,54.45L41.77,62.29L42.13,63.71L42.48,53.74L43.18,48.75L43.52,55.88L43.88,60.86L44.23,53.74L45.25,47.33L45.6,55.88L46.3,58.01L46.65,53.74L47,55.88L47.35,53.74L47.7,53.03L48.05,52.31L48.4,62.29L49.42,50.18L49.78,65.14L50.12,60.86L50.47,44.48L50.83,56.59L51.53,55.88L51.87,60.15L52.22,60.86L52.58,65.14L52.9,54.45L53.25,56.59L53.6,63L54.29,47.33L54.65,63.71L55,60.15L55.35,60.86L55.7,66.56L56.04,59.44L56.4,74.4L56.75,72.98L57.08,65.85L57.44,69.41L57.78,58.01L59.19,80.1L59.53,78.68L59.89,82.95L60.23,77.25L60.58,75.83L60.94,77.96L61.26,71.55L61.61,80.1L62.31,79.39L62.65,76.54L63.36,94.35L63.7,79.39L64.06,80.1L64.4,75.11L64.76,85.8L65.43,84.38L65.79,83.66L66.13,86.51L66.48,78.68L67.54,85.8L67.88,80.1L68.23,83.66L68.58,79.39L68.93,75.11L69.28,80.81L71,115.01" style="vector-effect: non-scaling-stroke; fill: none; stroke: rgb(140, 86, 75); stroke-opacity: 1; stroke-width: 0.5px; opacity: 1;"/></g><g class="points"/><g class="text"/></g><g class="trace scatter trace2ff3c076-c50c-448b-9c72-926397439491" style="stroke-miterlimit: 2;"><g class="fills"><g><path class="js-fill" d="M0,120L8.02,120L8.36,110.03L8.71,109.31L9.07,115.01L9.41,116.44L9.77,113.59L10.11,112.16L10.46,112.88L10.82,114.3L11.49,110.03L11.84,112.16L12.53,88.65L12.89,90.08L13.24,97.91L14.28,102.19L14.64,97.2L15.67,91.5L16.01,95.06L16.71,85.8L17.06,87.23L17.42,93.64L17.76,81.53L18.11,90.79L18.46,97.2L19.49,88.65L19.84,96.49L20.88,82.95L21.23,84.38L22.63,96.49L22.98,86.51L23.34,85.8L23.67,81.53L24.02,90.79L24.37,83.66L24.72,86.51L25.07,81.53L25.42,85.09L25.77,93.64L26.47,83.66L26.82,90.79L27.17,78.68L27.52,94.35L29.24,75.83L29.59,81.53L30.29,90.79L30.65,89.36L31.34,78.68L31.7,90.79L32.72,54.45L33.07,61.58L33.77,64.43L34.12,78.68L34.47,82.95L34.82,65.14L35.16,67.99L35.52,61.58L35.87,67.28L36.19,48.04L36.55,61.58L36.89,60.15L37.24,56.59L37.94,42.34L38.3,50.89L38.64,45.9L38.99,55.16L40.38,29.51L40.73,36.64L41.07,43.76L41.43,43.05L41.77,38.06L42.13,47.33L42.48,37.35L42.82,33.79L43.88,45.9L44.23,42.34L44.55,33.79L44.91,36.64L45.25,32.36L46.3,43.05L46.65,40.2L47.35,42.34L47.7,35.21L48.05,37.35L48.4,51.6L49.42,36.64L49.78,48.75L50.47,21.68L50.83,43.05L51.17,40.2L51.53,48.75L51.87,48.04L52.22,41.63L52.58,57.3L52.9,39.49L53.25,44.48L53.6,52.31L53.95,40.2L54.29,27.38L54.65,55.16L55.7,44.48L56.04,45.19L56.75,50.89L57.08,46.61L57.44,48.75L57.78,42.34L58.48,55.16L58.83,53.03L59.19,60.86L59.53,58.73L59.89,60.86L60.23,62.29L61.26,46.61L61.61,50.18L62.31,60.15L62.65,47.33L63.36,77.25L63.7,68.7L64.06,60.86L64.4,60.86L64.76,63L65.43,70.13L65.79,65.85L66.13,75.11L66.48,60.15L66.83,58.01L67.18,67.99L67.54,68.7L67.88,66.56L68.23,67.99L68.58,60.15L68.93,55.16L69.28,65.14L70.3,85.8L70.66,82.95L71,111.45L71,114.3L69.28,73.69L68.93,65.14L68.58,69.41L68.23,76.54L67.88,75.83L67.54,80.1L67.18,80.1L66.83,73.69L66.48,72.98L66.13,82.95L65.79,75.11L65.11,77.96L64.76,74.4L64.4,71.55L64.06,74.4L63.7,75.11L63.36,85.8L62.65,63.71L62.31,70.84L61.95,70.13L61.61,67.99L61.26,60.15L60.94,71.55L60.58,68.7L60.23,69.41L59.89,75.11L59.53,71.55L59.19,72.98L57.78,49.46L57.44,61.58L57.08,58.73L56.75,65.85L56.4,65.85L56.04,54.45L55.7,57.3L55.35,52.31L55,51.6L54.65,57.3L54.29,35.21L53.6,56.59L53.25,48.04L52.9,46.61L52.58,60.15L52.22,50.18L51.87,52.31L51.53,49.46L50.83,50.18L50.47,37.35L50.12,53.74L49.78,58.01L49.42,43.76L48.4,59.44L48.05,45.19L47.35,50.89L47,49.46L46.65,45.19L46.3,54.45L45.95,48.75L45.6,49.46L45.25,42.34L44.91,46.61L44.23,45.9L43.88,50.89L43.18,42.34L42.82,43.76L42.48,43.05L42.13,54.45L40.73,40.2L40.38,33.79L38.99,60.15L38.64,51.6L37.59,61.58L37.24,68.7L36.55,70.13L36.19,58.01L35.87,74.4L35.52,68.7L35.16,77.96L34.82,75.11L34.47,85.09L33.77,72.26L33.41,69.41L33.07,69.41L32.72,60.15L32.37,58.73L31.7,97.91L31.34,84.38L30.65,95.78L30.29,91.5L29.95,92.21L29.24,82.24L28.9,83.66L27.52,95.06L27.17,79.39L26.82,90.79L26.47,84.38L25.77,95.78L25.42,88.65L25.07,83.66L24.72,91.5L24.37,88.65L24.02,95.78L23.67,88.65L23.34,91.5L22.29,97.91L21.93,87.94L21.59,90.08L21.23,85.09L20.88,82.95L19.84,96.49L19.49,92.21L18.46,98.63L18.11,92.93L17.76,84.38L17.42,96.49L17.06,90.08L16.71,85.8L16.36,93.64L16.01,95.78L15.67,95.06L15.31,92.93L14.99,92.21L14.64,97.2L14.28,104.33L13.24,97.91L12.89,91.5L12.19,97.91L11.84,112.88L11.49,110.74L11.14,115.01L9.77,113.59L9.41,116.44L9.07,115.01L8.71,111.45L8.36,113.59L8.02,120L0,120Z" style="fill: rgb(127, 127, 127); fill-opacity: 0.5; stroke-width: 0;"/></g></g><g class="errorbars"/><g class="lines"><path class="js-line" d="M0,120L8.02,120L8.36,113.59L8.71,111.45L9.07,115.01L9.41,116.44L9.77,113.59L11.14,115.01L11.49,110.74L11.84,112.88L12.19,97.91L12.89,91.5L13.24,97.91L14.28,104.33L14.64,97.2L14.99,92.21L15.31,92.93L15.67,95.06L16.01,95.78L16.36,93.64L16.71,85.8L17.06,90.08L17.42,96.49L17.76,84.38L18.11,92.93L18.46,98.63L19.49,92.21L19.84,96.49L20.88,82.95L21.23,85.09L21.59,90.08L21.93,87.94L22.29,97.91L23.34,91.5L23.67,88.65L24.02,95.78L24.37,88.65L24.72,91.5L25.07,83.66L25.42,88.65L25.77,95.78L26.47,84.38L26.82,90.79L27.17,79.39L27.52,95.06L28.9,83.66L29.24,82.24L29.95,92.21L30.29,91.5L30.65,95.78L31.34,84.38L31.7,97.91L32.37,58.73L32.72,60.15L33.07,69.41L33.41,69.41L33.77,72.26L34.47,85.09L34.82,75.11L35.16,77.96L35.52,68.7L35.87,74.4L36.19,58.01L36.55,70.13L37.24,68.7L37.59,61.58L38.64,51.6L38.99,60.15L40.38,33.79L40.73,40.2L42.13,54.45L42.48,43.05L42.82,43.76L43.18,42.34L43.88,50.89L44.23,45.9L44.91,46.61L45.25,42.34L45.6,49.46L45.95,48.75L46.3,54.45L46.65,45.19L47,49.46L47.35,50.89L48.05,45.19L48.4,59.44L49.42,43.76L49.78,58.01L50.12,53.74L50.47,37.35L50.83,50.18L51.53,49.46L51.87,52.31L52.22,50.18L52.58,60.15L52.9,46.61L53.25,48.04L53.6,56.59L54.29,35.21L54.65,57.3L55,51.6L55.35,52.31L55.7,57.3L56.04,54.45L56.4,65.85L56.75,65.85L57.08,58.73L57.44,61.58L57.78,49.46L59.19,72.98L59.53,71.55L59.89,75.11L60.23,69.41L60.58,68.7L60.94,71.55L61.26,60.15L61.61,67.99L61.95,70.13L62.31,70.84L62.65,63.71L63.36,85.8L63.7,75.11L64.06,74.4L64.4,71.55L64.76,74.4L65.11,77.96L65.79,75.11L66.13,82.95L66.48,72.98L66.83,73.69L67.18,80.1L67.54,80.1L67.88,75.83L68.23,76.54L68.58,69.41L68.93,65.14L69.28,73.69L71,114.3" style="vector-effect: non-scaling-stroke; fill: none; stroke: rgb(227, 119, 194); stroke-opacity: 1; stroke-width: 0.5px; opacity: 1;"/></g><g class="points"/><g class="text"/></g><g class="trace scatter trace08077f34-6b7d-4290-86d2-adb5f637ebbe" style="stroke-miterlimit: 2;"><g class="fills"><g><path class="js-fill" d="M0,120L8.02,120L8.36,110.03L8.71,109.31L9.07,115.01L9.41,116.44L9.77,113.59L10.11,112.16L10.46,112.88L10.82,114.3L11.49,110.03L11.84,112.16L12.53,88.65L12.89,90.08L13.24,97.91L14.28,102.19L14.64,97.2L15.67,91.5L16.01,95.06L16.71,85.8L17.06,87.23L17.42,93.64L17.76,81.53L18.11,90.79L18.46,97.2L19.49,88.65L19.84,96.49L20.88,82.95L21.23,84.38L22.63,96.49L22.98,86.51L23.34,85.8L23.67,81.53L24.02,90.79L24.37,83.66L24.72,86.51L25.07,81.53L25.42,85.09L25.77,93.64L26.47,83.66L26.82,90.79L27.17,78.68L27.52,94.35L29.59,67.99L29.95,77.96L30.29,79.39L30.65,77.25L31.34,63.71L31.7,80.81L32.72,38.78L33.07,55.16L33.77,48.04L34.12,67.28L34.47,65.85L34.82,58.01L35.52,52.31L35.87,55.88L36.19,33.79L36.55,47.33L36.89,49.46L37.24,46.61L37.59,37.35L37.94,30.23L38.3,40.91L38.64,31.65L38.99,43.76L40.38,17.4L40.73,25.95L41.07,35.21L41.43,31.65L41.77,27.38L42.13,34.5L42.48,27.38L42.82,23.81L43.18,25.24L43.52,31.65L44.23,33.08L44.55,21.68L45.25,28.8L45.6,23.81L46.3,34.5L46.65,30.23L47,35.21L47.35,33.79L47.7,22.39L48.05,24.53L48.4,40.91L49.42,25.24L49.78,40.91L50.47,15.26L50.83,35.93L51.17,31.65L51.53,39.49L51.87,42.34L52.22,33.08L52.58,53.03L52.9,32.36L53.25,34.5L53.6,43.76L53.95,35.21L54.29,18.11L54.65,46.61L55,40.91L55.35,40.2L55.7,31.65L56.04,33.08L56.4,40.2L56.75,42.34L57.08,37.35L57.44,37.35L57.78,33.08L59.19,55.88L59.53,48.04L60.23,55.16L60.58,43.76L60.94,52.31L61.26,42.34L61.61,45.19L61.95,47.33L62.31,54.45L62.65,39.49L63.01,61.58L63.36,70.84L63.7,60.15L64.06,53.03L64.4,51.6L64.76,55.16L65.11,60.86L65.43,60.15L65.79,58.01L66.13,68.7L66.48,53.74L66.83,51.6L67.18,60.86L67.54,63L67.88,61.58L68.23,58.73L68.93,48.75L69.28,50.89L69.6,70.13L70.66,78.68L71,111.45L71,111.45L70.66,82.95L70.3,85.8L69.28,65.14L68.93,55.16L68.58,60.15L68.23,67.99L67.88,66.56L67.54,68.7L67.18,67.99L66.83,58.01L66.48,60.15L66.13,75.11L65.79,65.85L65.43,70.13L64.76,63L64.4,60.86L64.06,60.86L63.7,68.7L63.36,77.25L62.65,47.33L62.31,60.15L61.61,50.18L61.26,46.61L60.23,62.29L59.89,60.86L59.53,58.73L59.19,60.86L58.83,53.03L58.48,55.16L57.78,42.34L57.44,48.75L57.08,46.61L56.75,50.89L56.04,45.19L55.7,44.48L54.65,55.16L54.29,27.38L53.95,40.2L53.6,52.31L53.25,44.48L52.9,39.49L52.58,57.3L52.22,41.63L51.87,48.04L51.53,48.75L51.17,40.2L50.83,43.05L50.47,21.68L49.78,48.75L49.42,36.64L48.4,51.6L48.05,37.35L47.7,35.21L47.35,42.34L46.65,40.2L46.3,43.05L45.25,32.36L44.91,36.64L44.55,33.79L44.23,42.34L43.88,45.9L42.82,33.79L42.48,37.35L42.13,47.33L41.77,38.06L41.43,43.05L41.07,43.76L40.73,36.64L40.38,29.51L38.99,55.16L38.64,45.9L38.3,50.89L37.94,42.34L37.24,56.59L36.89,60.15L36.55,61.58L36.19,48.04L35.87,67.28L35.52,61.58L35.16,67.99L34.82,65.14L34.47,82.95L34.12,78.68L33.77,64.43L33.07,61.58L32.72,54.45L31.7,90.79L31.34,78.68L30.65,89.36L30.29,90.79L29.59,81.53L29.24,75.83L27.52,94.35L27.17,78.68L26.82,90.79L26.47,83.66L25.77,93.64L25.42,85.09L25.07,81.53L24.72,86.51L24.37,83.66L24.02,90.79L23.67,81.53L23.34,85.8L22.98,86.51L22.63,96.49L21.23,84.38L20.88,82.95L19.84,96.49L19.49,88.65L18.46,97.2L18.11,90.79L17.76,81.53L17.42,93.64L17.06,87.23L16.71,85.8L16.01,95.06L15.67,91.5L14.64,97.2L14.28,102.19L13.24,97.91L12.89,90.08L12.53,88.65L11.84,112.16L11.49,110.03L10.82,114.3L10.46,112.88L10.11,112.16L9.77,113.59L9.41,116.44L9.07,115.01L8.71,109.31L8.36,110.03L8.02,120L0,120Z" style="fill: rgb(188, 189, 34); fill-opacity: 0.5; stroke-width: 0;"/></g></g><g class="errorbars"/><g class="lines"><path class="js-line" d="M0,120L8.02,120L8.36,110.03L8.71,109.31L9.07,115.01L9.41,116.44L9.77,113.59L10.11,112.16L10.46,112.88L10.82,114.3L11.49,110.03L11.84,112.16L12.53,88.65L12.89,90.08L13.24,97.91L14.28,102.19L14.64,97.2L15.67,91.5L16.01,95.06L16.71,85.8L17.06,87.23L17.42,93.64L17.76,81.53L18.11,90.79L18.46,97.2L19.49,88.65L19.84,96.49L20.88,82.95L21.23,84.38L22.63,96.49L22.98,86.51L23.34,85.8L23.67,81.53L24.02,90.79L24.37,83.66L24.72,86.51L25.07,81.53L25.42,85.09L25.77,93.64L26.47,83.66L26.82,90.79L27.17,78.68L27.52,94.35L29.24,75.83L29.59,81.53L30.29,90.79L30.65,89.36L31.34,78.68L31.7,90.79L32.72,54.45L33.07,61.58L33.77,64.43L34.12,78.68L34.47,82.95L34.82,65.14L35.16,67.99L35.52,61.58L35.87,67.28L36.19,48.04L36.55,61.58L36.89,60.15L37.24,56.59L37.94,42.34L38.3,50.89L38.64,45.9L38.99,55.16L40.38,29.51L40.73,36.64L41.07,43.76L41.43,43.05L41.77,38.06L42.13,47.33L42.48,37.35L42.82,33.79L43.88,45.9L44.23,42.34L44.55,33.79L44.91,36.64L45.25,32.36L46.3,43.05L46.65,40.2L47.35,42.34L47.7,35.21L48.05,37.35L48.4,51.6L49.42,36.64L49.78,48.75L50.47,21.68L50.83,43.05L51.17,40.2L51.53,48.75L51.87,48.04L52.22,41.63L52.58,57.3L52.9,39.49L53.25,44.48L53.6,52.31L53.95,40.2L54.29,27.38L54.65,55.16L55.7,44.48L56.04,45.19L56.75,50.89L57.08,46.61L57.44,48.75L57.78,42.34L58.48,55.16L58.83,53.03L59.19,60.86L59.53,58.73L59.89,60.86L60.23,62.29L61.26,46.61L61.61,50.18L62.31,60.15L62.65,47.33L63.36,77.25L63.7,68.7L64.06,60.86L64.4,60.86L64.76,63L65.43,70.13L65.79,65.85L66.13,75.11L66.48,60.15L66.83,58.01L67.18,67.99L67.54,68.7L67.88,66.56L68.23,67.99L68.58,60.15L68.93,55.16L69.28,65.14L70.3,85.8L70.66,82.95L71,111.45" style="vector-effect: non-scaling-stroke; fill: none; stroke: rgb(127, 127, 127); stroke-opacity: 1; stroke-width: 0.5px; opacity: 1;"/></g><g class="points"/><g class="text"/></g><g class="trace scatter trace8930c618-1038-4644-9faf-d8847cf8f21b" style="stroke-miterlimit: 2;"><g class="fills"><g><path class="js-fill" d="M0,110.03L0.35,102.19L0.71,102.9L1.05,105.75L1.41,104.33L1.75,109.31L2.1,102.9L2.46,111.45L2.78,108.6L3.13,110.74L3.48,109.31L3.83,107.89L4.17,110.03L4.53,107.18L4.88,112.88L5.58,108.6L5.92,109.31L6.28,115.73L6.63,117.86L6.96,113.59L7.32,116.44L7.66,115.73L8.02,114.3L8.71,102.19L9.07,112.16L9.41,113.59L9.77,110.74L10.11,103.61L10.46,107.18L10.82,107.18L11.84,97.2L12.19,81.53L12.53,72.98L12.89,80.1L13.24,92.93L14.28,101.48L14.64,95.78L15.67,85.09L16.01,90.08L16.71,80.1L17.06,80.81L17.42,87.23L17.76,70.84L18.11,85.8L18.46,88.65L19.49,75.11L19.84,90.08L20.54,77.96L20.88,79.39L21.23,84.38L22.29,92.21L22.63,90.79L23.67,81.53L24.02,88.65L25.07,77.25L25.42,82.24L25.77,89.36L26.12,79.39L26.82,85.09L27.17,72.98L27.52,88.65L27.84,80.81L28.2,80.81L28.9,70.13L29.24,63.71L29.59,60.15L29.95,69.41L30.29,70.84L30.65,76.54L31.34,63.71L31.7,80.81L32.72,38.78L33.07,54.45L33.77,48.04L34.12,65.14L34.82,56.59L35.16,48.75L35.52,44.48L35.87,50.89L36.19,26.66L36.55,43.76L36.89,48.04L37.94,27.38L38.3,37.35L38.64,30.94L38.99,42.34L39.69,21.68L40.05,25.95L40.38,16.69L40.73,25.24L41.07,31.65L41.43,30.94L41.77,24.53L42.13,33.08L42.48,26.66L42.82,23.1L43.18,23.81L43.52,30.94L43.88,31.65L44.23,30.23L44.55,16.69L44.91,19.54L45.25,25.95L45.6,23.1L45.95,34.5L46.65,30.23L47,34.5L47.35,33.08L47.7,17.4L48.05,20.96L48.4,39.49L49.42,23.81L49.78,38.06L50.47,6L50.83,35.21L51.17,24.53L51.53,33.08L51.87,30.23L52.22,25.24L52.58,48.04L53.25,28.09L53.6,35.21L54.29,12.41L54.65,43.05L55.7,26.66L56.04,23.81L56.4,37.35L56.75,36.64L57.08,29.51L57.44,28.8L57.78,31.65L58.14,31.65L58.48,36.64L58.83,33.79L59.19,48.75L59.53,42.34L59.89,45.9L60.23,45.9L61.26,34.5L61.61,40.91L61.95,38.06L62.31,42.34L62.65,26.66L63.01,45.9L63.36,63L63.7,48.04L64.06,43.76L64.4,40.2L64.76,47.33L65.11,52.31L65.43,47.33L65.79,47.33L66.13,57.3L66.48,45.9L66.83,43.76L67.54,56.59L67.88,54.45L68.23,48.04L69.28,43.76L69.6,60.86L70.66,76.54L71,110.74L71,111.45L70.66,78.68L69.6,70.13L69.28,50.89L68.93,48.75L68.23,58.73L67.88,61.58L67.54,63L67.18,60.86L66.83,51.6L66.48,53.74L66.13,68.7L65.79,58.01L65.43,60.15L65.11,60.86L64.76,55.16L64.4,51.6L64.06,53.03L63.7,60.15L63.36,70.84L63.01,61.58L62.65,39.49L62.31,54.45L61.95,47.33L61.61,45.19L61.26,42.34L60.94,52.31L60.58,43.76L60.23,55.16L59.53,48.04L59.19,55.88L57.78,33.08L57.44,37.35L57.08,37.35L56.75,42.34L56.4,40.2L56.04,33.08L55.7,31.65L55.35,40.2L55,40.91L54.65,46.61L54.29,18.11L53.95,35.21L53.6,43.76L53.25,34.5L52.9,32.36L52.58,53.03L52.22,33.08L51.87,42.34L51.53,39.49L51.17,31.65L50.83,35.93L50.47,15.26L49.78,40.91L49.42,25.24L48.4,40.91L48.05,24.53L47.7,22.39L47.35,33.79L47,35.21L46.65,30.23L46.3,34.5L45.6,23.81L45.25,28.8L44.55,21.68L44.23,33.08L43.52,31.65L43.18,25.24L42.82,23.81L42.48,27.38L42.13,34.5L41.77,27.38L41.43,31.65L41.07,35.21L40.73,25.95L40.38,17.4L38.99,43.76L38.64,31.65L38.3,40.91L37.94,30.23L37.59,37.35L37.24,46.61L36.89,49.46L36.55,47.33L36.19,33.79L35.87,55.88L35.52,52.31L34.82,58.01L34.47,65.85L34.12,67.28L33.77,48.04L33.07,55.16L32.72,38.78L31.7,80.81L31.34,63.71L30.65,77.25L30.29,79.39L29.95,77.96L29.59,67.99L27.52,94.35L27.17,78.68L26.82,90.79L26.47,83.66L25.77,93.64L25.42,85.09L25.07,81.53L24.72,86.51L24.37,83.66L24.02,90.79L23.67,81.53L23.34,85.8L22.98,86.51L22.63,96.49L21.23,84.38L20.88,82.95L19.84,96.49L19.49,88.65L18.46,97.2L18.11,90.79L17.76,81.53L17.42,93.64L17.06,87.23L16.71,85.8L16.01,95.06L15.67,91.5L14.64,97.2L14.28,102.19L13.24,97.91L12.89,90.08L12.53,88.65L11.84,112.16L11.49,110.03L10.82,114.3L10.46,112.88L10.11,112.16L9.77,113.59L9.41,116.44L9.07,115.01L8.71,109.31L8.36,110.03L8.02,120L0,120Z" style="fill: rgb(23, 190, 207); fill-opacity: 0.5; stroke-width: 0;"/></g></g><g class="errorbars"/><g class="lines"><path class="js-line" d="M0,120L8.02,120L8.36,110.03L8.71,109.31L9.07,115.01L9.41,116.44L9.77,113.59L10.11,112.16L10.46,112.88L10.82,114.3L11.49,110.03L11.84,112.16L12.53,88.65L12.89,90.08L13.24,97.91L14.28,102.19L14.64,97.2L15.67,91.5L16.01,95.06L16.71,85.8L17.06,87.23L17.42,93.64L17.76,81.53L18.11,90.79L18.46,97.2L19.49,88.65L19.84,96.49L20.88,82.95L21.23,84.38L22.63,96.49L22.98,86.51L23.34,85.8L23.67,81.53L24.02,90.79L24.37,83.66L24.72,86.51L25.07,81.53L25.42,85.09L25.77,93.64L26.47,83.66L26.82,90.79L27.17,78.68L27.52,94.35L29.59,67.99L29.95,77.96L30.29,79.39L30.65,77.25L31.34,63.71L31.7,80.81L32.72,38.78L33.07,55.16L33.77,48.04L34.12,67.28L34.47,65.85L34.82,58.01L35.52,52.31L35.87,55.88L36.19,33.79L36.55,47.33L36.89,49.46L37.24,46.61L37.59,37.35L37.94,30.23L38.3,40.91L38.64,31.65L38.99,43.76L40.38,17.4L40.73,25.95L41.07,35.21L41.43,31.65L41.77,27.38L42.13,34.5L42.48,27.38L42.82,23.81L43.18,25.24L43.52,31.65L44.23,33.08L44.55,21.68L45.25,28.8L45.6,23.81L46.3,34.5L46.65,30.23L47,35.21L47.35,33.79L47.7,22.39L48.05,24.53L48.4,40.91L49.42,25.24L49.78,40.91L50.47,15.26L50.83,35.93L51.17,31.65L51.53,39.49L51.87,42.34L52.22,33.08L52.58,53.03L52.9,32.36L53.25,34.5L53.6,43.76L53.95,35.21L54.29,18.11L54.65,46.61L55,40.91L55.35,40.2L55.7,31.65L56.04,33.08L56.4,40.2L56.75,42.34L57.08,37.35L57.44,37.35L57.78,33.08L59.19,55.88L59.53,48.04L60.23,55.16L60.58,43.76L60.94,52.31L61.26,42.34L61.61,45.19L61.95,47.33L62.31,54.45L62.65,39.49L63.01,61.58L63.36,70.84L63.7,60.15L64.06,53.03L64.4,51.6L64.76,55.16L65.11,60.86L65.43,60.15L65.79,58.01L66.13,68.7L66.48,53.74L66.83,51.6L67.18,60.86L67.54,63L67.88,61.58L68.23,58.73L68.93,48.75L69.28,50.89L69.6,70.13L70.66,78.68L71,111.45" style="vector-effect: non-scaling-stroke; fill: none; stroke: rgb(188, 189, 34); stroke-opacity: 1; stroke-width: 0.5px; opacity: 1;"/></g><g class="points"/><g class="text"/></g><g class="trace scatter trace5b5564dc-09f3-476b-a9ed-c25c81353135" style="stroke-miterlimit: 2;"><g class="fills"/><g class="errorbars"/><g class="lines"><path class="js-line" d="M0,110.03L0.35,102.19L0.71,102.9L1.05,105.75L1.41,104.33L1.75,109.31L2.1,102.9L2.46,111.45L2.78,108.6L3.13,110.74L3.48,109.31L3.83,107.89L4.17,110.03L4.53,107.18L4.88,112.88L5.58,108.6L5.92,109.31L6.28,115.73L6.63,117.86L6.96,113.59L7.32,116.44L7.66,115.73L8.02,114.3L8.71,102.19L9.07,112.16L9.41,113.59L9.77,110.74L10.11,103.61L10.46,107.18L10.82,107.18L11.84,97.2L12.19,81.53L12.53,72.98L12.89,80.1L13.24,92.93L14.28,101.48L14.64,95.78L15.67,85.09L16.01,90.08L16.71,80.1L17.06,80.81L17.42,87.23L17.76,70.84L18.11,85.8L18.46,88.65L19.49,75.11L19.84,90.08L20.54,77.96L20.88,79.39L21.23,84.38L22.29,92.21L22.63,90.79L23.67,81.53L24.02,88.65L25.07,77.25L25.42,82.24L25.77,89.36L26.12,79.39L26.82,85.09L27.17,72.98L27.52,88.65L27.84,80.81L28.2,80.81L28.9,70.13L29.24,63.71L29.59,60.15L29.95,69.41L30.29,70.84L30.65,76.54L31.34,63.71L31.7,80.81L32.72,38.78L33.07,54.45L33.77,48.04L34.12,65.14L34.82,56.59L35.16,48.75L35.52,44.48L35.87,50.89L36.19,26.66L36.55,43.76L36.89,48.04L37.94,27.38L38.3,37.35L38.64,30.94L38.99,42.34L39.69,21.68L40.05,25.95L40.38,16.69L40.73,25.24L41.07,31.65L41.43,30.94L41.77,24.53L42.13,33.08L42.48,26.66L42.82,23.1L43.18,23.81L43.52,30.94L43.88,31.65L44.23,30.23L44.55,16.69L44.91,19.54L45.25,25.95L45.6,23.1L45.95,34.5L46.65,30.23L47,34.5L47.35,33.08L47.7,17.4L48.05,20.96L48.4,39.49L49.42,23.81L49.78,38.06L50.47,6L50.83,35.21L51.17,24.53L51.53,33.08L51.87,30.23L52.22,25.24L52.58,48.04L53.25,28.09L53.6,35.21L54.29,12.41L54.65,43.05L55.7,26.66L56.04,23.81L56.4,37.35L56.75,36.64L57.08,29.51L57.44,28.8L57.78,31.65L58.14,31.65L58.48,36.64L58.83,33.79L59.19,48.75L59.53,42.34L59.89,45.9L60.23,45.9L61.26,34.5L61.61,40.91L61.95,38.06L62.31,42.34L62.65,26.66L63.01,45.9L63.36,63L63.7,48.04L64.06,43.76L64.4,40.2L64.76,47.33L65.11,52.31L65.43,47.33L65.79,47.33L66.13,57.3L66.48,45.9L66.83,43.76L67.54,56.59L67.88,54.45L68.23,48.04L69.28,43.76L69.6,60.86L70.66,76.54L71,110.74" style="vector-effect: non-scaling-stroke; fill: none; stroke: rgb(23, 190, 207); stroke-opacity: 1; stroke-width: 0.5px; opacity: 1;"/></g><g class="points"/><g class="text"/></g></g></g><g class="overplot"/><path class="xlines-above crisp" d="M0,0" style="fill: none;"/><path class="ylines-above crisp" d="M0,0" style="fill: none;"/><g class="overlines-above"/><g class="xaxislayer-above"><g class="xtick"><text text-anchor="start" x="0" y="233" transform="translate(90.46000000000001,0) rotate(90,0,227)" style="font-family: 'Open Sans', verdana, arial, sans-serif; font-size: 12px; fill: rgb(68, 68, 68); fill-opacity: 1; white-space: pre;">2005</text></g><g class="xtick"><text text-anchor="start" x="0" y="233" transform="translate(111.34,0) rotate(90,0,227)" style="font-family: 'Open Sans', verdana, arial, sans-serif; font-size: 12px; fill: rgb(68, 68, 68); fill-opacity: 1; white-space: pre;">2010</text></g><g class="xtick"><text text-anchor="start" x="0" y="233" transform="translate(132.22,0) rotate(90,0,227)" style="font-family: 'Open Sans', verdana, arial, sans-serif; font-size: 12px; fill: rgb(68, 68, 68); fill-opacity: 1; white-space: pre;">2015</text></g></g><g class="yaxislayer-above"><g class="ytick"><text text-anchor="end" x="79" y="4.199999999999999" transform="translate(0,220)" style="font-family: 'Open Sans', verdana, arial, sans-serif; font-size: 12px; fill: rgb(68, 68, 68); fill-opacity: 1; white-space: pre;">0</text></g><g class="ytick"><text text-anchor="end" x="79" y="4.199999999999999" transform="translate(0,184.38)" style="font-family: 'Open Sans', verdana, arial, sans-serif; font-size: 12px; fill: rgb(68, 68, 68); fill-opacity: 1; white-space: pre;">50</text></g><g class="ytick"><text text-anchor="end" x="79" y="4.199999999999999" transform="translate(0,148.75)" style="font-family: 'Open Sans', verdana, arial, sans-serif; font-size: 12px; fill: rgb(68, 68, 68); fill-opacity: 1; white-space: pre;">100</text></g><g class="ytick"><text text-anchor="end" x="79" y="4.199999999999999" transform="translate(0,113.13)" style="font-family: 'Open Sans', verdana, arial, sans-serif; font-size: 12px; fill: rgb(68, 68, 68); fill-opacity: 1; white-space: pre;">150</text></g></g><g class="overaxes-above"/></g></g><g class="polarlayer"/><g class="ternarylayer"/><g class="geolayer"/><g class="funnelarealayer"/><g class="pielayer"/><g class="sunburstlayer"/><g class="glimages"/><defs id="topdefs-1da828"><g class="clips"/><clipPath id="legend1da828"><rect width="71" height="120" x="0" y="0"/></clipPath></defs><g class="layer-above"><g class="imagelayer"/><g class="shapelayer"/></g><g class="infolayer"><g class="legend" pointer-events="all" transform="translate(80, 100)"><rect class="bg" shape-rendering="crispEdges" width="71" height="120" x="0" y="0" style="stroke: rgb(68, 68, 68); stroke-opacity: 1; fill: rgb(255, 255, 255); fill-opacity: 1; stroke-width: 0px;"/><g class="scrollbox" transform="translate(0, 0)" clip-path="url('#legend1da828')"><g class="groups"><g class="traces" transform="translate(0, 14.5)" style="opacity: 1;"><text class="legendtext user-select-none" text-anchor="start" x="40" y="4.680000000000001" style="font-family: 'Open Sans', verdana, arial, sans-serif; font-size: 12px; fill: rgb(68, 68, 68); fill-opacity: 1; white-space: pre;">NeroFiddled</text><g class="layers"><g class="legendfill"><path class="js-fill" d="M5,-2h30v6h-30z" style="stroke-width: 0; fill: rgb(23, 190, 207); fill-opacity: 0.5;"/></g><g class="legendlines"><path class="js-line" d="M5,-2h30" style="fill: none; stroke: rgb(23, 190, 207); stroke-opacity: 1; stroke-width: 0.5px;"/></g><g class="legendsymbols"><g class="legendpoints"/></g></g><rect class="legendtoggle" pointer-events="all" x="0" y="-9.5" width="176" height="19" style="cursor: pointer; fill: rgb(0, 0, 0); fill-opacity: 0;"/></g><g class="traces" transform="translate(0, 33.5)" style="opacity: 1;"><text class="legendtext user-select-none" text-anchor="start" x="40" y="4.680000000000001" style="font-family: 'Open Sans', verdana, arial, sans-serif; font-size: 12px; fill: rgb(68, 68, 68); fill-opacity: 1; white-space: pre;">jlindros</text><g class="layers"><g class="legendfill"><path class="js-fill" d="M5,-2h30v6h-30z" style="stroke-width: 0; fill: rgb(188, 189, 34); fill-opacity: 0.5;"/></g><g class="legendlines"><path class="js-line" d="M5,-2h30" style="fill: none; stroke: rgb(188, 189, 34); stroke-opacity: 1; stroke-width: 0.5px;"/></g><g class="legendsymbols"><g class="legendpoints"/></g></g><rect class="legendtoggle" pointer-events="all" x="0" y="-9.5" width="176" height="19" style="cursor: pointer; fill: rgb(0, 0, 0); fill-opacity: 0;"/></g><g class="traces" transform="translate(0, 52.5)" style="opacity: 1;"><text class="legendtext user-select-none" text-anchor="start" x="40" y="4.680000000000001" style="font-family: 'Open Sans', verdana, arial, sans-serif; font-size: 12px; fill: rgb(68, 68, 68); fill-opacity: 1; white-space: pre;">woodychandler</text><g class="layers"><g class="legendfill"><path class="js-fill" d="M5,-2h30v6h-30z" style="stroke-width: 0; fill: rgb(127, 127, 127); fill-opacity: 0.5;"/></g><g class="legendlines"><path class="js-line" d="M5,-2h30" style="fill: none; stroke: rgb(127, 127, 127); stroke-opacity: 1; stroke-width: 0.5px;"/></g><g class="legendsymbols"><g class="legendpoints"/></g></g><rect class="legendtoggle" pointer-events="all" x="0" y="-9.5" width="176" height="19" style="cursor: pointer; fill: rgb(0, 0, 0); fill-opacity: 0;"/></g><g class="traces" transform="translate(0, 71.5)" style="opacity: 1;"><text class="legendtext user-select-none" text-anchor="start" x="40" y="4.680000000000001" style="font-family: 'Open Sans', verdana, arial, sans-serif; font-size: 12px; fill: rgb(68, 68, 68); fill-opacity: 1; white-space: pre;">zeff80</text><g class="layers"><g class="legendfill"><path class="js-fill" d="M5,-2h30v6h-30z" style="stroke-width: 0; fill: rgb(227, 119, 194); fill-opacity: 0.5;"/></g><g class="legendlines"><path class="js-line" d="M5,-2h30" style="fill: none; stroke: rgb(227, 119, 194); stroke-opacity: 1; stroke-width: 0.5px;"/></g><g class="legendsymbols"><g class="legendpoints"/></g></g><rect class="legendtoggle" pointer-events="all" x="0" y="-9.5" width="176" height="19" style="cursor: pointer; fill: rgb(0, 0, 0); fill-opacity: 0;"/></g><g class="traces" transform="translate(0, 90.5)" style="opacity: 1;"><text class="legendtext user-select-none" text-anchor="start" x="40" y="4.680000000000001" style="font-family: 'Open Sans', verdana, arial, sans-serif; font-size: 12px; fill: rgb(68, 68, 68); fill-opacity: 1; white-space: pre;">UCLABrewN84</text><g class="layers"><g class="legendfill"><path class="js-fill" d="M5,-2h30v6h-30z" style="stroke-width: 0; fill: rgb(140, 86, 75); fill-opacity: 0.5;"/></g><g class="legendlines"><path class="js-line" d="M5,-2h30" style="fill: none; stroke: rgb(140, 86, 75); stroke-opacity: 1; stroke-width: 0.5px;"/></g><g class="legendsymbols"><g class="legendpoints"/></g></g><rect class="legendtoggle" pointer-events="all" x="0" y="-9.5" width="176" height="19" style="cursor: pointer; fill: rgb(0, 0, 0); fill-opacity: 0;"/></g><g class="traces" transform="translate(0, 109.5)" style="opacity: 1;"><text class="legendtext user-select-none" text-anchor="start" x="40" y="4.680000000000001" style="font-family: 'Open Sans', verdana, arial, sans-serif; font-size: 12px; fill: rgb(68, 68, 68); fill-opacity: 1; white-space: pre;">BEERchitect</text><g class="layers"><g class="legendfill"><path class="js-fill" d="M5,-2h30v6h-30z" style="stroke-width: 0; fill: rgb(148, 103, 189); fill-opacity: 0.5;"/></g><g class="legendlines"><path class="js-line" d="M5,-2h30" style="fill: none; stroke: rgb(148, 103, 189); stroke-opacity: 1; stroke-width: 0.5px;"/></g><g class="legendsymbols"><g class="legendpoints"/></g></g><rect class="legendtoggle" pointer-events="all" x="0" y="-9.5" width="176" height="19" style="cursor: pointer; fill: rgb(0, 0, 0); fill-opacity: 0;"/></g><g class="traces" transform="translate(0, 128.5)" style="opacity: 1;"><text class="legendtext user-select-none" text-anchor="start" x="40" y="4.680000000000001" style="font-family: 'Open Sans', verdana, arial, sans-serif; font-size: 12px; fill: rgb(68, 68, 68); fill-opacity: 1; white-space: pre;">brentk56</text><g class="layers"><g class="legendfill"><path class="js-fill" d="M5,-2h30v6h-30z" style="stroke-width: 0; fill: rgb(214, 39, 40); fill-opacity: 0.5;"/></g><g class="legendlines"><path class="js-line" d="M5,-2h30" style="fill: none; stroke: rgb(214, 39, 40); stroke-opacity: 1; stroke-width: 0.5px;"/></g><g class="legendsymbols"><g class="legendpoints"/></g></g><rect class="legendtoggle" pointer-events="all" x="0" y="-9.5" width="176" height="19" style="cursor: pointer; fill: rgb(0, 0, 0); fill-opacity: 0;"/></g><g class="traces" transform="translate(0, 147.5)" style="opacity: 1;"><text class="legendtext user-select-none" text-anchor="start" x="40" y="4.680000000000001" style="font-family: 'Open Sans', verdana, arial, sans-serif; font-size: 12px; fill: rgb(68, 68, 68); fill-opacity: 1; white-space: pre;">superspak</text><g class="layers"><g class="legendfill"><path class="js-fill" d="M5,-2h30v6h-30z" style="stroke-width: 0; fill: rgb(44, 160, 44); fill-opacity: 0.5;"/></g><g class="legendlines"><path class="js-line" d="M5,-2h30" style="fill: none; stroke: rgb(44, 160, 44); stroke-opacity: 1; stroke-width: 0.5px;"/></g><g class="legendsymbols"><g class="legendpoints"/></g></g><rect class="legendtoggle" pointer-events="all" x="0" y="-9.5" width="176" height="19" style="cursor: pointer; fill: rgb(0, 0, 0); fill-opacity: 0;"/></g><g class="traces" transform="translate(0, 166.5)" style="opacity: 1;"><text class="legendtext user-select-none" text-anchor="start" x="40" y="4.680000000000001" style="font-family: 'Open Sans', verdana, arial, sans-serif; font-size: 12px; fill: rgb(68, 68, 68); fill-opacity: 1; white-space: pre;">metter98</text><g class="layers"><g class="legendfill"><path class="js-fill" d="M5,-2h30v6h-30z" style="stroke-width: 0; fill: rgb(255, 127, 14); fill-opacity: 0.5;"/></g><g class="legendlines"><path class="js-line" d="M5,-2h30" style="fill: none; stroke: rgb(255, 127, 14); stroke-opacity: 1; stroke-width: 0.5px;"/></g><g class="legendsymbols"><g class="legendpoints"/></g></g><rect class="legendtoggle" pointer-events="all" x="0" y="-9.5" width="176" height="19" style="cursor: pointer; fill: rgb(0, 0, 0); fill-opacity: 0;"/></g><g class="traces" transform="translate(0, 185.5)" style="opacity: 1;"><text class="legendtext user-select-none" text-anchor="start" x="40" y="4.680000000000001" style="font-family: 'Open Sans', verdana, arial, sans-serif; font-size: 12px; fill: rgb(68, 68, 68); fill-opacity: 1; white-space: pre;">StonedTrippin</text><g class="layers"><g class="legendfill"><path class="js-fill" d="M5,-2h30v6h-30z" style="stroke-width: 0; fill: rgb(31, 119, 180); fill-opacity: 0.5;"/></g><g class="legendlines"><path class="js-line" d="M5,-2h30" style="fill: none; stroke: rgb(31, 119, 180); stroke-opacity: 1; stroke-width: 0.5px;"/></g><g class="legendsymbols"><g class="legendpoints"/></g></g><rect class="legendtoggle" pointer-events="all" x="0" y="-9.5" width="176" height="19" style="cursor: pointer; fill: rgb(0, 0, 0); fill-opacity: 0;"/></g></g></g><rect class="scrollbar" rx="20" ry="3" width="0" height="0" x="0" y="0" style="fill: rgb(128, 139, 164); fill-opacity: 1;"/></g><g class="g-gtitle"><text class="gtitle" x="150" y="50" text-anchor="middle" dy="0em" style="font-family: 'Open Sans', verdana, arial, sans-serif; font-size: 17px; fill: rgb(68, 68, 68); opacity: 1; font-weight: normal; white-space: pre;">Montly Aggregate of Super-User Activity</text></g><g class="g-xtitle" transform="translate(0,1.515625)"><text class="xtitle" x="115.5" y="272" text-anchor="middle" style="font-family: 'Open Sans', verdana, arial, sans-serif; font-size: 14px; fill: rgb(68, 68, 68); opacity: 1; font-weight: normal; white-space: pre;">Date</text></g><g class="g-ytitle"><text class="ytitle" transform="rotate(-90,42,160)" x="42" y="160" text-anchor="middle" style="font-family: 'Open Sans', verdana, arial, sans-serif; font-size: 14px; fill: rgb(68, 68, 68); opacity: 1; font-weight: normal; white-space: pre;">Per Month Count</text></g></g></svg>